<?xml version="1.0" encoding="UTF-8" standalone="no"?>
<!DOCTYPE svg PUBLIC "-//W3C//DTD SVG 1.1//EN"
 "http://www.w3.org/Graphics/SVG/1.1/DTD/svg11.dtd">
<!-- Generated by graphviz version 16.0.0 (0)
 -->
<!-- Title: g_04_the_robot Pages: 1 -->
<svg width="386pt" height="65pt"
 viewBox="0.00 0.00 386.00 65.00" xmlns="http://www.w3.org/2000/svg" xmlns:xlink="http://www.w3.org/1999/xlink">
<g id="graph0" class="graph" transform="scale(1 1) rotate(0) translate(14.4 50.4)">
<title>g_04_the_robot</title>
<!-- n0 -->
<g id="node1" class="node">
<title>n0</title>
<path fill="#f7f6f3" stroke="#1a1917" stroke-width="1.2" d="M52.75,-36C52.75,-36 12,-36 12,-36 6,-36 0,-30 0,-24 0,-24 0,-12 0,-12 0,-6 6,0 12,0 12,0 52.75,0 52.75,0 58.75,0 64.75,-6 64.75,-12 64.75,-12 64.75,-24 64.75,-24 64.75,-30 58.75,-36 52.75,-36"/>
<text xml:space="preserve" text-anchor="middle" x="32.38" y="-13.18" font-family="Inter,Helvetica,sans-serif" font-size="11.00">robot path</text>
</g>
<!-- n1 -->
<g id="node2" class="node">
<title>n1</title>
<path fill="#f7f6f3" stroke="#1a1917" stroke-width="1.2" d="M155.75,-36C155.75,-36 112.75,-36 112.75,-36 106.75,-36 100.75,-30 100.75,-24 100.75,-24 100.75,-12 100.75,-12 100.75,-6 106.75,0 112.75,0 112.75,0 155.75,0 155.75,0 161.75,0 167.75,-6 167.75,-12 167.75,-12 167.75,-24 167.75,-24 167.75,-30 161.75,-36 155.75,-36"/>
<text xml:space="preserve" text-anchor="middle" x="134.25" y="-13.18" font-family="Inter,Helvetica,sans-serif" font-size="11.00">easyconfig</text>
</g>
<!-- n0&#45;&gt;n1 -->
<g id="edge1" class="edge">
<title>n0&#45;&gt;n1</title>
<path fill="none" stroke="#1a1917" stroke-width="1.1" d="M65.25,-18C73.64,-18 82.82,-18 91.64,-18"/>
<polygon fill="#1a1917" stroke="#1a1917" stroke-width="1.1" points="91.64,-20.45 98.64,-18 91.64,-15.55 91.64,-20.45"/>
</g>
<!-- n2 -->
<g id="node3" class="node">
<title>n2</title>
<path fill="#f7f6f3" stroke="#1a1917" stroke-width="1.2" d="M255,-36C255,-36 215.75,-36 215.75,-36 209.75,-36 203.75,-30 203.75,-24 203.75,-24 203.75,-12 203.75,-12 203.75,-6 209.75,0 215.75,0 215.75,0 255,0 255,0 261,0 267,-6 267,-12 267,-12 267,-24 267,-24 267,-30 261,-36 255,-36"/>
<text xml:space="preserve" text-anchor="middle" x="235.38" y="-13.18" font-family="Inter,Helvetica,sans-serif" font-size="11.00">easyblock</text>
</g>
<!-- n1&#45;&gt;n2 -->
<g id="edge2" class="edge">
<title>n1&#45;&gt;n2</title>
<path fill="none" stroke="#1a1917" stroke-width="1.1" d="M168.26,-18C176.71,-18 185.88,-18 194.63,-18"/>
<polygon fill="#1a1917" stroke="#1a1917" stroke-width="1.1" points="194.52,-20.45 201.52,-18 194.52,-15.55 194.52,-20.45"/>
</g>
<!-- n3 -->
<g id="node4" class="node">
<title>n3</title>
<path fill="#f7f6f3" stroke="#1a1917" stroke-width="1.2" d="M345,-36C345,-36 315,-36 315,-36 309,-36 303,-30 303,-24 303,-24 303,-12 303,-12 303,-6 309,0 315,0 315,0 345,0 345,0 351,0 357,-6 357,-12 357,-12 357,-24 357,-24 357,-30 351,-36 345,-36"/>
<text xml:space="preserve" text-anchor="middle" x="330" y="-13.18" font-family="Inter,Helvetica,sans-serif" font-size="11.00">deps</text>
</g>
<!-- n2&#45;&gt;n3 -->
<g id="edge3" class="edge">
<title>n2&#45;&gt;n3</title>
<path fill="none" stroke="#1a1917" stroke-width="1.1" d="M267.48,-18C275.99,-18 285.28,-18 293.99,-18"/>
<polygon fill="#1a1917" stroke="#1a1917" stroke-width="1.1" points="293.8,-20.45 300.8,-18 293.8,-15.55 293.8,-20.45"/>
</g>
</g>
</svg>
