<?xml version="1.0" encoding="UTF-8" standalone="no"?>
<!DOCTYPE svg PUBLIC "-//W3C//DTD SVG 1.1//EN"
 "http://www.w3.org/Graphics/SVG/1.1/DTD/svg11.dtd">
<!-- Generated by graphviz version 16.0.0 (0)
 -->
<!-- Title: g_12_eb_stack_updater_and_generator_2 Pages: 1 -->
<svg width="389pt" height="130pt"
 viewBox="0.00 0.00 389.00 130.00" xmlns="http://www.w3.org/2000/svg" xmlns:xlink="http://www.w3.org/1999/xlink">
<g id="graph0" class="graph" transform="scale(1 1) rotate(0) translate(14.4 115.4)">
<title>g_12_eb_stack_updater_and_generator_2</title>
<!-- foreign -->
<g id="node1" class="node">
<title>foreign</title>
<path fill="#f7f6f3" stroke="#1a1917" stroke-width="1.2" d="M100.75,-101C100.75,-101 12,-101 12,-101 6,-101 0,-95 0,-89 0,-89 0,-77 0,-77 0,-71 6,-65 12,-65 12,-65 100.75,-65 100.75,-65 106.75,-65 112.75,-71 112.75,-77 112.75,-77 112.75,-89 112.75,-89 112.75,-95 106.75,-101 100.75,-101"/>
<text xml:space="preserve" text-anchor="middle" x="56.38" y="-78.17" font-family="Inter,Helvetica,sans-serif" font-size="11.00">conda&#45;forge / Spack</text>
</g>
<!-- port -->
<g id="node2" class="node">
<title>port</title>
<path fill="#f7f6f3" stroke="#1a1917" stroke-width="1.2" d="M231,-101C231,-101 164.75,-101 164.75,-101 158.75,-101 152.75,-95 152.75,-89 152.75,-89 152.75,-77 152.75,-77 152.75,-71 158.75,-65 164.75,-65 164.75,-65 231,-65 231,-65 237,-65 243,-71 243,-77 243,-77 243,-89 243,-89 243,-95 237,-101 231,-101"/>
<text xml:space="preserve" text-anchor="middle" x="197.88" y="-78.17" font-family="Inter,Helvetica,sans-serif" font-size="11.00">port → new .eb</text>
</g>
<!-- foreign&#45;&gt;port -->
<g id="edge1" class="edge">
<title>foreign&#45;&gt;port</title>
<path fill="none" stroke="#1a1917" stroke-width="1.1" d="M113.31,-83C123.4,-83 133.88,-83 143.88,-83"/>
<polygon fill="#1a1917" stroke="#1a1917" stroke-width="1.1" points="143.85,-85.45 150.85,-83 143.85,-80.55 143.85,-85.45"/>
</g>
<!-- eb -->
<g id="node5" class="node">
<title>eb</title>
<path fill="#f7f6f3" stroke="#1a1917" stroke-width="1.2" d="M347.75,-68C347.75,-68 295,-68 295,-68 289,-68 283,-62 283,-56 283,-56 283,-44 283,-44 283,-38 289,-32 295,-32 295,-32 347.75,-32 347.75,-32 353.75,-32 359.75,-38 359.75,-44 359.75,-44 359.75,-56 359.75,-56 359.75,-62 353.75,-68 347.75,-68"/>
<text xml:space="preserve" text-anchor="middle" x="321.38" y="-45.17" font-family="Inter,Helvetica,sans-serif" font-size="11.00">eb still builds</text>
</g>
<!-- port&#45;&gt;eb -->
<g id="edge2" class="edge">
<title>port&#45;&gt;eb</title>
<path fill="none" stroke="#1a1917" stroke-width="1.1" d="M243.43,-70.9C253.48,-68.17 264.17,-65.27 274.29,-62.52"/>
<polygon fill="#1a1917" stroke="#1a1917" stroke-width="1.1" points="274.9,-64.89 281.01,-60.69 273.62,-60.16 274.9,-64.89"/>
</g>
<!-- old -->
<g id="node3" class="node">
<title>old</title>
<path fill="#f7f6f3" stroke="#1a1917" stroke-width="1.2" d="M79.75,-36C79.75,-36 33,-36 33,-36 27,-36 21,-30 21,-24 21,-24 21,-12 21,-12 21,-6 27,0 33,0 33,0 79.75,0 79.75,0 85.75,0 91.75,-6 91.75,-12 91.75,-12 91.75,-24 91.75,-24 91.75,-30 85.75,-36 79.75,-36"/>
<text xml:space="preserve" text-anchor="middle" x="56.38" y="-13.18" font-family="Inter,Helvetica,sans-serif" font-size="11.00">working .eb</text>
</g>
<!-- bump -->
<g id="node4" class="node">
<title>bump</title>
<path fill="#f7f6f3" stroke="#1a1917" stroke-width="1.2" d="M218.62,-36C218.62,-36 177.12,-36 177.12,-36 171.12,-36 165.12,-30 165.12,-24 165.12,-24 165.12,-12 165.12,-12 165.12,-6 171.12,0 177.12,0 177.12,0 218.62,0 218.62,0 224.62,0 230.62,-6 230.62,-12 230.62,-12 230.62,-24 230.62,-24 230.62,-30 224.62,-36 218.62,-36"/>
<text xml:space="preserve" text-anchor="middle" x="197.88" y="-13.18" font-family="Inter,Helvetica,sans-serif" font-size="11.00">bump pins</text>
</g>
<!-- old&#45;&gt;bump -->
<g id="edge3" class="edge">
<title>old&#45;&gt;bump</title>
<path fill="none" stroke="#1a1917" stroke-width="1.1" d="M92.22,-18C111.71,-18 136.09,-18 156.42,-18"/>
<polygon fill="#1a1917" stroke="#1a1917" stroke-width="1.1" points="156.2,-20.45 163.2,-18 156.2,-15.55 156.2,-20.45"/>
</g>
<!-- bump&#45;&gt;eb -->
<g id="edge4" class="edge">
<title>bump&#45;&gt;eb</title>
<path fill="none" stroke="#1a1917" stroke-width="1.1" d="M231.12,-26.49C244.4,-29.99 260.03,-34.11 274.47,-37.91"/>
<polygon fill="#1a1917" stroke="#1a1917" stroke-width="1.1" points="273.81,-40.27 281.2,-39.68 275.05,-35.53 273.81,-40.27"/>
</g>
</g>
</svg>
