<?xml version="1.0" encoding="UTF-8" standalone="no"?>
<!DOCTYPE svg PUBLIC "-//W3C//DTD SVG 1.1//EN"
 "http://www.w3.org/Graphics/SVG/1.1/DTD/svg11.dtd">
<!-- Generated by graphviz version 16.0.0 (0)
 -->
<!-- Title: g_30_easystack_is_the_list Pages: 1 -->
<svg width="270pt" height="65pt"
 viewBox="0.00 0.00 270.00 65.00" xmlns="http://www.w3.org/2000/svg" xmlns:xlink="http://www.w3.org/1999/xlink">
<g id="graph0" class="graph" transform="scale(1 1) rotate(0) translate(14.4 50.4)">
<title>g_30_easystack_is_the_list</title>
<!-- n0 -->
<g id="node1" class="node">
<title>n0</title>
<path fill="#f7f6f3" stroke="#1a1917" stroke-width="1.2" d="M44.5,-36C44.5,-36 12,-36 12,-36 6,-36 0,-30 0,-24 0,-24 0,-12 0,-12 0,-6 6,0 12,0 12,0 44.5,0 44.5,0 50.5,0 56.5,-6 56.5,-12 56.5,-12 56.5,-24 56.5,-24 56.5,-30 50.5,-36 44.5,-36"/>
<text xml:space="preserve" text-anchor="middle" x="28.25" y="-13.18" font-family="Inter,Helvetica,sans-serif" font-size="11.00">software</text>
</g>
<!-- n1 -->
<g id="node2" class="node">
<title>n1</title>
<path fill="#f7f6f3" stroke="#1a1917" stroke-width="1.2" d="M134.5,-36C134.5,-36 104.5,-36 104.5,-36 98.5,-36 92.5,-30 92.5,-24 92.5,-24 92.5,-12 92.5,-12 92.5,-6 98.5,0 104.5,0 104.5,0 134.5,0 134.5,0 140.5,0 146.5,-6 146.5,-12 146.5,-12 146.5,-24 146.5,-24 146.5,-30 140.5,-36 134.5,-36"/>
<text xml:space="preserve" text-anchor="middle" x="119.5" y="-13.18" font-family="Inter,Helvetica,sans-serif" font-size="11.00">version</text>
</g>
<!-- n0&#45;&gt;n1 -->
<g id="edge1" class="edge">
<title>n0&#45;&gt;n1</title>
<path fill="none" stroke="#1a1917" stroke-width="1.1" d="M57,-18C65.37,-18 74.66,-18 83.44,-18"/>
<polygon fill="#1a1917" stroke="#1a1917" stroke-width="1.1" points="83.32,-20.45 90.32,-18 83.32,-15.55 83.32,-20.45"/>
</g>
<!-- n2 -->
<g id="node3" class="node">
<title>n2</title>
<path fill="#f7f6f3" stroke="#1a1917" stroke-width="1.2" d="M229.25,-36C229.25,-36 194.5,-36 194.5,-36 188.5,-36 182.5,-30 182.5,-24 182.5,-24 182.5,-12 182.5,-12 182.5,-6 188.5,0 194.5,0 194.5,0 229.25,0 229.25,0 235.25,0 241.25,-6 241.25,-12 241.25,-12 241.25,-24 241.25,-24 241.25,-30 235.25,-36 229.25,-36"/>
<text xml:space="preserve" text-anchor="middle" x="211.88" y="-13.18" font-family="Inter,Helvetica,sans-serif" font-size="11.00">toolchain</text>
</g>
<!-- n1&#45;&gt;n2 -->
<g id="edge2" class="edge">
<title>n1&#45;&gt;n2</title>
<path fill="none" stroke="#1a1917" stroke-width="1.1" d="M146.64,-18C155.02,-18 164.46,-18 173.48,-18"/>
<polygon fill="#1a1917" stroke="#1a1917" stroke-width="1.1" points="173.28,-20.45 180.28,-18 173.28,-15.55 173.28,-20.45"/>
</g>
</g>
</svg>
