<?xml version="1.0" encoding="UTF-8" standalone="no"?>
<!DOCTYPE svg PUBLIC "-//W3C//DTD SVG 1.1//EN"
 "http://www.w3.org/Graphics/SVG/1.1/DTD/svg11.dtd">
<!-- Generated by graphviz version 16.0.0 (0)
 -->
<!-- Title: g_40_login_vs_partition Pages: 1 -->
<svg width="327pt" height="141pt"
 viewBox="0.00 0.00 327.00 141.00" xmlns="http://www.w3.org/2000/svg" xmlns:xlink="http://www.w3.org/1999/xlink">
<g id="graph0" class="graph" transform="scale(1 1) rotate(0) translate(14.4 126.4)">
<title>g_40_login_vs_partition</title>
<!-- host -->
<g id="node1" class="node">
<title>host</title>
<path fill="#f7f6f3" stroke="#1a1917" stroke-width="1.2" d="M113.75,-112C113.75,-112 54.25,-112 54.25,-112 48.25,-112 42.25,-106 42.25,-100 42.25,-100 42.25,-88 42.25,-88 42.25,-82 48.25,-76 54.25,-76 54.25,-76 113.75,-76 113.75,-76 119.75,-76 125.75,-82 125.75,-88 125.75,-88 125.75,-100 125.75,-100 125.75,-106 119.75,-112 113.75,-112"/>
<text xml:space="preserve" text-anchor="middle" x="84" y="-89.17" font-family="Inter,Helvetica,sans-serif" font-size="11.00">ReFrame host</text>
</g>
<!-- su -->
<g id="node2" class="node">
<title>su</title>
<path fill="#f7f6f3" stroke="#1a1917" stroke-width="1.2" d="M42,-36C42,-36 12,-36 12,-36 6,-36 0,-30 0,-24 0,-24 0,-12 0,-12 0,-6 6,0 12,0 12,0 42,0 42,0 48,0 54,-6 54,-12 54,-12 54,-24 54,-24 54,-30 48,-36 42,-36"/>
<text xml:space="preserve" text-anchor="middle" x="27" y="-13.18" font-family="Inter,Helvetica,sans-serif" font-size="11.00">setup</text>
</g>
<!-- host&#45;&gt;su -->
<g id="edge1" class="edge">
<title>host&#45;&gt;su</title>
<path fill="none" stroke="#1a1917" stroke-width="1.1" d="M70.49,-75.46C63.04,-65.79 53.67,-53.63 45.54,-43.07"/>
<polygon fill="#1a1917" stroke="#1a1917" stroke-width="1.1" points="47.64,-41.78 41.43,-37.73 43.76,-44.77 47.64,-41.78"/>
</g>
<!-- cl -->
<g id="node3" class="node">
<title>cl</title>
<path fill="#f7f6f3" stroke="#1a1917" stroke-width="1.2" d="M121,-36C121,-36 91,-36 91,-36 85,-36 79,-30 79,-24 79,-24 79,-12 79,-12 79,-6 85,0 91,0 91,0 121,0 121,0 127,0 133,-6 133,-12 133,-12 133,-24 133,-24 133,-30 127,-36 121,-36"/>
<text xml:space="preserve" text-anchor="middle" x="106" y="-13.18" font-family="Inter,Helvetica,sans-serif" font-size="11.00">cleanup</text>
</g>
<!-- host&#45;&gt;cl -->
<g id="edge2" class="edge">
<title>host&#45;&gt;cl</title>
<path fill="none" stroke="#1a1917" stroke-width="1.1" d="M89.21,-75.46C91.95,-66.25 95.36,-54.78 98.39,-44.59"/>
<polygon fill="#1a1917" stroke="#1a1917" stroke-width="1.1" points="100.7,-45.41 100.35,-38.01 96.01,-44.02 100.7,-45.41"/>
</g>
<!-- part -->
<g id="node4" class="node">
<title>part</title>
<path fill="#f7f6f3" stroke="#1a1917" stroke-width="1.2" d="M228.12,-112C228.12,-112 197.88,-112 197.88,-112 191.88,-112 185.88,-106 185.88,-100 185.88,-100 185.88,-88 185.88,-88 185.88,-82 191.88,-76 197.88,-76 197.88,-76 228.12,-76 228.12,-76 234.12,-76 240.12,-82 240.12,-88 240.12,-88 240.12,-100 240.12,-100 240.12,-106 234.12,-112 228.12,-112"/>
<text xml:space="preserve" text-anchor="middle" x="213" y="-89.17" font-family="Inter,Helvetica,sans-serif" font-size="11.00">partition</text>
</g>
<!-- co -->
<g id="node5" class="node">
<title>co</title>
<path fill="#f7f6f3" stroke="#1a1917" stroke-width="1.2" d="M207,-36C207,-36 177,-36 177,-36 171,-36 165,-30 165,-24 165,-24 165,-12 165,-12 165,-6 171,0 177,0 177,0 207,0 207,0 213,0 219,-6 219,-12 219,-12 219,-24 219,-24 219,-30 213,-36 207,-36"/>
<text xml:space="preserve" text-anchor="middle" x="192" y="-13.18" font-family="Inter,Helvetica,sans-serif" font-size="11.00">compile</text>
</g>
<!-- part&#45;&gt;co -->
<g id="edge3" class="edge">
<title>part&#45;&gt;co</title>
<path fill="none" stroke="#1a1917" stroke-width="1.1" d="M208.02,-75.46C205.41,-66.25 202.15,-54.78 199.26,-44.59"/>
<polygon fill="#1a1917" stroke="#1a1917" stroke-width="1.1" points="201.66,-44.08 197.4,-38.01 196.95,-45.42 201.66,-44.08"/>
</g>
<!-- ru -->
<g id="node6" class="node">
<title>ru</title>
<path fill="#f7f6f3" stroke="#1a1917" stroke-width="1.2" d="M286,-36C286,-36 256,-36 256,-36 250,-36 244,-30 244,-24 244,-24 244,-12 244,-12 244,-6 250,0 256,0 256,0 286,0 286,0 292,0 298,-6 298,-12 298,-12 298,-24 298,-24 298,-30 292,-36 286,-36"/>
<text xml:space="preserve" text-anchor="middle" x="271" y="-13.18" font-family="Inter,Helvetica,sans-serif" font-size="11.00">run</text>
</g>
<!-- part&#45;&gt;ru -->
<g id="edge4" class="edge">
<title>part&#45;&gt;ru</title>
<path fill="none" stroke="#1a1917" stroke-width="1.1" d="M226.75,-75.46C234.33,-65.79 243.86,-53.63 252.13,-43.07"/>
<polygon fill="#1a1917" stroke="#1a1917" stroke-width="1.1" points="253.94,-44.74 256.33,-37.72 250.08,-41.72 253.94,-44.74"/>
</g>
</g>
</svg>
