<?xml version="1.0" encoding="UTF-8" standalone="no"?>
<!DOCTYPE svg PUBLIC "-//W3C//DTD SVG 1.1//EN"
 "http://www.w3.org/Graphics/SVG/1.1/DTD/svg11.dtd">
<!-- Generated by graphviz version 16.0.0 (0)
 -->
<!-- Title: g_41_the_configuration_file_is_the_machine Pages: 1 -->
<svg width="277pt" height="65pt"
 viewBox="0.00 0.00 277.00 65.00" xmlns="http://www.w3.org/2000/svg" xmlns:xlink="http://www.w3.org/1999/xlink">
<g id="graph0" class="graph" transform="scale(1 1) rotate(0) translate(14.4 50.4)">
<title>g_41_the_configuration_file_is_the_machine</title>
<!-- n0 -->
<g id="node1" class="node">
<title>n0</title>
<path fill="#f7f6f3" stroke="#1a1917" stroke-width="1.2" d="M55.75,-36C55.75,-36 12,-36 12,-36 6,-36 0,-30 0,-24 0,-24 0,-12 0,-12 0,-6 6,0 12,0 12,0 55.75,0 55.75,0 61.75,0 67.75,-6 67.75,-12 67.75,-12 67.75,-24 67.75,-24 67.75,-30 61.75,-36 55.75,-36"/>
<text xml:space="preserve" text-anchor="middle" x="33.88" y="-13.18" font-family="Inter,Helvetica,sans-serif" font-size="11.00">reframe.py</text>
</g>
<!-- n1 -->
<g id="node2" class="node">
<title>n1</title>
<path fill="#f7f6f3" stroke="#1a1917" stroke-width="1.2" d="M145.75,-36C145.75,-36 115.75,-36 115.75,-36 109.75,-36 103.75,-30 103.75,-24 103.75,-24 103.75,-12 103.75,-12 103.75,-6 109.75,0 115.75,0 115.75,0 145.75,0 145.75,0 151.75,0 157.75,-6 157.75,-12 157.75,-12 157.75,-24 157.75,-24 157.75,-30 151.75,-36 145.75,-36"/>
<text xml:space="preserve" text-anchor="middle" x="130.75" y="-13.18" font-family="Inter,Helvetica,sans-serif" font-size="11.00">system</text>
</g>
<!-- n0&#45;&gt;n1 -->
<g id="edge1" class="edge">
<title>n0&#45;&gt;n1</title>
<path fill="none" stroke="#1a1917" stroke-width="1.1" d="M68.32,-18C76.97,-18 86.29,-18 95,-18"/>
<polygon fill="#1a1917" stroke="#1a1917" stroke-width="1.1" points="94.79,-20.45 101.79,-18 94.79,-15.55 94.79,-20.45"/>
</g>
<!-- n2 -->
<g id="node3" class="node">
<title>n2</title>
<path fill="#f7f6f3" stroke="#1a1917" stroke-width="1.2" d="M236,-36C236,-36 205.75,-36 205.75,-36 199.75,-36 193.75,-30 193.75,-24 193.75,-24 193.75,-12 193.75,-12 193.75,-6 199.75,0 205.75,0 205.75,0 236,0 236,0 242,0 248,-6 248,-12 248,-12 248,-24 248,-24 248,-30 242,-36 236,-36"/>
<text xml:space="preserve" text-anchor="middle" x="220.88" y="-13.18" font-family="Inter,Helvetica,sans-serif" font-size="11.00">partition</text>
</g>
<!-- n1&#45;&gt;n2 -->
<g id="edge2" class="edge">
<title>n1&#45;&gt;n2</title>
<path fill="none" stroke="#1a1917" stroke-width="1.1" d="M158.19,-18C166.56,-18 175.94,-18 184.81,-18"/>
<polygon fill="#1a1917" stroke="#1a1917" stroke-width="1.1" points="184.79,-20.45 191.79,-18 184.79,-15.55 184.79,-20.45"/>
</g>
</g>
</svg>
