<?xml version="1.0" encoding="UTF-8" standalone="no"?>
<!DOCTYPE svg PUBLIC "-//W3C//DTD SVG 1.1//EN"
 "http://www.w3.org/Graphics/SVG/1.1/DTD/svg11.dtd">
<!-- Generated by graphviz version 16.0.0 (0)
 -->
<!-- Title: g_45_a_portable_test_leaves_the_machine_in_the_config_2 Pages: 1 -->
<svg width="396pt" height="65pt"
 viewBox="0.00 0.00 396.00 65.00" xmlns="http://www.w3.org/2000/svg" xmlns:xlink="http://www.w3.org/1999/xlink">
<g id="graph0" class="graph" transform="scale(1 1) rotate(0) translate(14.4 50.4)">
<title>g_45_a_portable_test_leaves_the_machine_in_the_config_2</title>
<!-- test -->
<g id="node1" class="node">
<title>test</title>
<path fill="#f7f6f3" stroke="#1a1917" stroke-width="1.2" d="M63.25,-36C63.25,-36 12,-36 12,-36 6,-36 0,-30 0,-24 0,-24 0,-12 0,-12 0,-6 6,0 12,0 12,0 63.25,0 63.25,0 69.25,0 75.25,-6 75.25,-12 75.25,-12 75.25,-24 75.25,-24 75.25,-30 69.25,-36 63.25,-36"/>
<text xml:space="preserve" text-anchor="middle" x="37.62" y="-13.18" font-family="Inter,Helvetica,sans-serif" font-size="11.00">portable test</text>
</g>
<!-- mixin -->
<g id="node2" class="node">
<title>mixin</title>
<path fill="#f7f6f3" stroke="#1a1917" stroke-width="1.2" d="M157.25,-36C157.25,-36 127.25,-36 127.25,-36 121.25,-36 115.25,-30 115.25,-24 115.25,-24 115.25,-12 115.25,-12 115.25,-6 121.25,0 127.25,0 127.25,0 157.25,0 157.25,0 163.25,0 169.25,-6 169.25,-12 169.25,-12 169.25,-24 169.25,-24 169.25,-30 163.25,-36 157.25,-36"/>
<text xml:space="preserve" text-anchor="middle" x="142.25" y="-13.18" font-family="Inter,Helvetica,sans-serif" font-size="11.00">mixin</text>
</g>
<!-- test&#45;&gt;mixin -->
<g id="edge1" class="edge">
<title>test&#45;&gt;mixin</title>
<path fill="none" stroke="#1a1917" stroke-width="1.1" d="M75.67,-18C85.71,-18 96.54,-18 106.44,-18"/>
<polygon fill="#1a1917" stroke="#1a1917" stroke-width="1.1" points="106.21,-20.45 113.21,-18 106.21,-15.55 106.21,-20.45"/>
</g>
<!-- cfg -->
<g id="node3" class="node">
<title>cfg</title>
<path fill="#f7f6f3" stroke="#1a1917" stroke-width="1.2" d="M261.25,-36C261.25,-36 221.25,-36 221.25,-36 215.25,-36 209.25,-30 209.25,-24 209.25,-24 209.25,-12 209.25,-12 209.25,-6 215.25,0 221.25,0 221.25,0 261.25,0 261.25,0 267.25,0 273.25,-6 273.25,-12 273.25,-12 273.25,-24 273.25,-24 273.25,-30 267.25,-36 261.25,-36"/>
<text xml:space="preserve" text-anchor="middle" x="241.25" y="-13.18" font-family="Inter,Helvetica,sans-serif" font-size="11.00">site config</text>
</g>
<!-- mixin&#45;&gt;cfg -->
<g id="edge2" class="edge">
<title>mixin&#45;&gt;cfg</title>
<path fill="none" stroke="#1a1917" stroke-width="1.1" d="M169.76,-18C179.22,-18 190.11,-18 200.44,-18"/>
<polygon fill="#1a1917" stroke="#1a1917" stroke-width="1.1" points="200.29,-20.45 207.29,-18 200.29,-15.55 200.29,-20.45"/>
</g>
<!-- site -->
<g id="node4" class="node">
<title>site</title>
<path fill="#f7f6f3" stroke="#1a1917" stroke-width="1.2" d="M355.25,-36C355.25,-36 325.25,-36 325.25,-36 319.25,-36 313.25,-30 313.25,-24 313.25,-24 313.25,-12 313.25,-12 313.25,-6 319.25,0 325.25,0 325.25,0 355.25,0 355.25,0 361.25,0 367.25,-6 367.25,-12 367.25,-12 367.25,-24 367.25,-24 367.25,-30 361.25,-36 355.25,-36"/>
<text xml:space="preserve" text-anchor="middle" x="340.25" y="-13.18" font-family="Inter,Helvetica,sans-serif" font-size="11.00">any site</text>
</g>
<!-- cfg&#45;&gt;site -->
<g id="edge3" class="edge">
<title>cfg&#45;&gt;site</title>
<path fill="none" stroke="#1a1917" stroke-width="1.1" d="M273.74,-18C283.5,-18 294.3,-18 304.28,-18"/>
<polygon fill="#1a1917" stroke="#1a1917" stroke-width="1.1" points="304.12,-20.45 311.12,-18 304.12,-15.55 304.12,-20.45"/>
</g>
</g>
</svg>
