<?xml version="1.0" encoding="UTF-8" standalone="no"?>
<!DOCTYPE svg PUBLIC "-//W3C//DTD SVG 1.1//EN"
 "http://www.w3.org/Graphics/SVG/1.1/DTD/svg11.dtd">
<!-- Generated by graphviz version 16.0.0 (0)
 -->
<!-- Title: g_recipe_run_dry_vs_install Pages: 1 -->
<svg width="181pt" height="126pt"
 viewBox="0.00 0.00 181.00 126.00" xmlns="http://www.w3.org/2000/svg" xmlns:xlink="http://www.w3.org/1999/xlink">
<g id="graph0" class="graph" transform="scale(1 1) rotate(0) translate(14.4 111.4)">
<title>g_recipe_run_dry_vs_install</title>
<!-- dry -->
<g id="node1" class="node">
<title>dry</title>
<path fill="#f7f6f3" stroke="#1a1917" stroke-width="1.2" d="M44,-36C44,-36 14,-36 14,-36 8,-36 2,-30 2,-24 2,-24 2,-12 2,-12 2,-6 8,0 14,0 14,0 44,0 44,0 50,0 56,-6 56,-12 56,-12 56,-24 56,-24 56,-30 50,-36 44,-36"/>
<text xml:space="preserve" text-anchor="middle" x="29" y="-13.18" font-family="Inter,Helvetica,sans-serif" font-size="11.00">dry&#45;run</text>
</g>
<!-- plan -->
<g id="node2" class="node">
<title>plan</title>
<path fill="#f7f6f3" stroke="#1a1917" stroke-width="1.2" d="M140.25,-36C140.25,-36 110,-36 110,-36 104,-36 98,-30 98,-24 98,-24 98,-12 98,-12 98,-6 104,0 110,0 110,0 140.25,0 140.25,0 146.25,0 152.25,-6 152.25,-12 152.25,-12 152.25,-24 152.25,-24 152.25,-30 146.25,-36 140.25,-36"/>
<text xml:space="preserve" text-anchor="middle" x="125.12" y="-13.18" font-family="Inter,Helvetica,sans-serif" font-size="11.00">the plan</text>
</g>
<!-- dry&#45;&gt;plan -->
<g id="edge1" class="edge">
<title>dry&#45;&gt;plan</title>
<path fill="none" stroke="#1a1917" stroke-width="1.1" d="M56.47,-18C66.6,-18 78.3,-18 89.11,-18"/>
<polygon fill="#1a1917" stroke="#1a1917" stroke-width="1.1" points="88.86,-20.45 95.86,-18 88.86,-15.55 88.86,-20.45"/>
</g>
<!-- inst -->
<g id="node3" class="node">
<title>inst</title>
<path fill="#f7f6f3" stroke="#1a1917" stroke-width="1.2" d="M46,-97C46,-97 12,-97 12,-97 6,-97 0,-91 0,-85 0,-85 0,-73 0,-73 0,-67 6,-61 12,-61 12,-61 46,-61 46,-61 52,-61 58,-67 58,-73 58,-73 58,-85 58,-85 58,-91 52,-97 46,-97"/>
<text xml:space="preserve" text-anchor="middle" x="29" y="-74.17" font-family="Inter,Helvetica,sans-serif" font-size="11.00">eb install</text>
</g>
<!-- mod -->
<g id="node4" class="node">
<title>mod</title>
<path fill="#f7f6f3" stroke="#1a1917" stroke-width="1.2" d="M140.12,-97C140.12,-97 110.12,-97 110.12,-97 104.12,-97 98.12,-91 98.12,-85 98.12,-85 98.12,-73 98.12,-73 98.12,-67 104.12,-61 110.12,-61 110.12,-61 140.12,-61 140.12,-61 146.12,-61 152.12,-67 152.12,-73 152.12,-73 152.12,-85 152.12,-85 152.12,-91 146.12,-97 140.12,-97"/>
<text xml:space="preserve" text-anchor="middle" x="125.12" y="-74.17" font-family="Inter,Helvetica,sans-serif" font-size="11.00">module</text>
</g>
<!-- inst&#45;&gt;mod -->
<g id="edge2" class="edge">
<title>inst&#45;&gt;mod</title>
<path fill="none" stroke="#1a1917" stroke-width="1.1" d="M58.5,-79C68.12,-79 78.98,-79 89.05,-79"/>
<polygon fill="#1a1917" stroke="#1a1917" stroke-width="1.1" points="88.99,-81.45 95.99,-79 88.99,-76.55 88.99,-81.45"/>
</g>
</g>
</svg>
